<svg width="14" height="14" viewBox="0 0 14 14" fill="none" xmlns="http://www.w3.org/2000/svg">
<path d="M5.96342 1.86651L4.90753 3.99573C4.76355 4.29213 4.37959 4.57643 4.05563 4.63087L2.14184 4.95146C0.917975 5.15712 0.630008 6.05234 1.51191 6.93549L2.99974 8.43562C3.25172 8.68967 3.3897 9.17964 3.31171 9.53048L2.88576 11.3875C2.54979 12.8574 3.32371 13.426 4.61357 12.6578L6.40737 11.5871C6.73133 11.3935 7.26527 11.3935 7.59524 11.5871L9.38904 12.6578C10.6729 13.426 11.4528 12.8513 11.1168 11.3875L10.6909 9.53048C10.6129 9.17964 10.7509 8.68967 11.0029 8.43562L12.4907 6.93549C13.3666 6.05234 13.0846 5.15712 11.8608 4.95146L9.94698 4.63087C9.62901 4.57643 9.24506 4.29213 9.10107 3.99573L8.04519 1.86651C7.46925 0.711164 6.53335 0.711164 5.96342 1.86651Z" fill="#E9A906" stroke="#E9A906" stroke-width="1.5" stroke-linecap="round" stroke-linejoin="round"/>
</svg>
